<?xml version="1.0" encoding="UTF-8" standalone="no"?>
<!DOCTYPE svg PUBLIC "-//W3C//DTD SVG 1.1//EN" "http://www.w3.org/Graphics/SVG/1.1/DTD/svg11.dtd">
<svg width="100%" height="100%" viewBox="0 0 1015 909" version="1.1" xmlns="http://www.w3.org/2000/svg" xmlns:xlink="http://www.w3.org/1999/xlink" xml:space="preserve" style="fill-rule:evenodd;clip-rule:evenodd;stroke-linejoin:round;stroke-miterlimit:1.41421;">
    <g transform="matrix(1,0,0,1,-492.6,-238.644)">
        <path d="M932.3,382.5C940.9,398.1 948,415.1 954.8,434.1C955.5,435.9 957.2,437.2 959.1,437.4C1006.9,440.8 1049.5,452.3 1085.7,473.5C1088.3,475 1089.9,473.9 1089.3,470.9C1065.2,356.1 1034.9,280.6 964.1,239.3C961.8,238 958.9,238.7 957.3,240.8C925.8,285 927.9,352.5 929.3,372.3C929.5,375.9 930.6,379.3 932.3,382.5Z" style="fill:rgb(53,84,55);fill-rule:nonzero;"/>
        <path d="M1186.3,653.8C1150.2,518.4 1063.5,460.2 944.5,451.7C942.6,451.6 940.9,450.3 940.3,448.5C914.4,376.4 884.4,331.3 785.1,293.4C782.6,292.4 779.7,293.7 778.8,296.3C739.8,404.7 762.7,477.8 837.5,585.6C841,590.6 838.9,594 832.8,593.1C812.3,590.3 790.9,584.2 769,576.2C762.4,573.8 759.8,576.9 763.1,583C796.8,646.1 844.2,701.1 926.1,735.4C973.7,755.4 1025.4,763.9 1076.9,760.4C1131,756.7 1174.4,738.8 1187.1,679.5C1188.9,671.1 1188.6,662.3 1186.3,653.8ZM904.6,463.4C895.2,448.1 885.6,433.5 875.5,419.7C859.8,430.2 851.7,440.8 846.4,456.7C845.7,458.9 845.1,458.8 845,456.5C844.3,435 851.8,419.1 867.4,408.8C857.5,395.8 847.2,383.5 836.6,372C820.9,382.5 812.7,393.1 807.4,409C806.7,411.2 806.1,411.1 806,408.8C805.4,387.9 812.4,372.3 827.1,362C816.4,351 805.3,340.8 793.9,331.4C792.1,329.9 792.4,329.3 794.6,330.2C853.2,352.1 886.9,399.8 905.9,462.8C906.8,465.7 906.2,466 904.6,463.4ZM1064,622.5C1003.7,621.6 972,602.6 962.8,569.2C962.3,567.5 963.5,566.1 965.2,566.2C988.1,566.5 1010.3,568.8 1030.8,575.3C1035,576.6 1038.9,578.9 1042,581.9C1053.9,593.4 1062.3,605.8 1066.4,619.4C1066.9,621.1 1065.8,622.5 1064,622.5Z" style="fill:rgb(53,84,55);fill-rule:nonzero;"/>
        <g>
            <path d="M592.4,956.9L592.4,920.5L592,919.6C578.3,919.3 569.8,919.2 566.5,919.2C548.5,919.3 539.4,919.6 539.4,919.9L539.8,920.3L539.8,956C539.8,963.7 540.4,969.8 541.5,974.3C541.8,975.3 543.8,976.5 547.5,977.8C551.2,979.1 553.7,979.8 555,979.8C555.6,979.8 555.9,980.9 556,983.1C556.1,985.3 555.9,986.9 555.5,987.9C554.8,987.9 550.3,987.6 542.1,987C533.9,986.4 527.9,986.1 524.1,986.1C520.3,986.1 514.8,986.4 507.6,986.9C500.4,987.4 495.7,987.7 493.5,987.9C492.9,987.3 492.6,986.1 492.6,984.2C492.6,981.3 492.7,979.8 493,979.8C494.7,979.8 497.5,979.2 501.3,978.1C505.1,976.9 507.2,975.8 507.6,974.6C508.6,970.7 509.1,964.8 509.1,956.9L509.1,873.6C509.1,864.7 508.6,859.1 507.6,856.6C506.9,855 504.8,853.6 501.5,852.5C498.2,851.3 495.6,850.8 493.9,850.8C493.3,850.8 493,849.3 493,846.4C493,844.2 493.1,843 493.4,842.7C513.5,843.6 523.6,844 523.7,844C527.5,844 538.1,843.6 555.6,842.7C556,843.4 556.3,845 556.3,847.3C556.3,849.6 556,850.8 555.4,850.8C554.1,850.8 551.5,851.4 547.8,852.7C544,853.9 541.9,855.1 541.5,856.1C540.3,859.2 539.8,865.3 539.8,874.6L539.8,905.6L540.2,906.3C554.5,906.6 563.2,906.7 566.4,906.7C570.3,906.7 578.8,906.6 591.9,906.3C592.2,906 592.3,905.7 592.3,905.4L592.3,873.8C592.3,866.2 591.8,860.5 590.8,856.6C590.4,855.4 588.4,854.2 584.8,852.9C581.2,851.6 578.7,850.9 577.1,850.9C576.5,850.9 576.2,849.7 576.1,847.3C576,844.9 576.3,843.4 576.9,842.8C597,843.7 607.8,844.1 609.4,844.1C611.6,844.1 621.4,843.7 638.9,842.8C639.3,844.1 639.6,845.4 639.6,846.7C639.6,849.5 639.2,850.8 638.5,850.8C637.2,850.8 634.6,851.4 630.9,852.7C627.1,853.9 625.1,855.1 624.8,856.1C623.6,860.5 623.1,866.6 623.1,874.6L623.1,956C623.1,963.9 623.7,970 624.8,974.5C625.1,975.5 627.1,976.6 630.8,977.8C634.5,979 637,979.5 638.3,979.5C638.9,979.5 639.2,981 639.2,984.1C639.2,985.3 639,986.5 638.5,987.8C637.2,987.8 632.9,987.5 625.6,986.9C618.3,986.3 612.8,986 609,986C605.1,986 599.1,986.3 591.2,986.8C583.3,987.3 578.4,987.6 576.5,987.8C575.9,987.2 575.7,985.7 575.7,983.3C575.8,980.9 576.1,979.7 576.7,979.7C578.3,979.7 581,979 584.8,977.7C588.6,976.4 590.7,975.2 591.1,974C591.9,970.8 592.4,965 592.4,956.9Z" style="fill:rgb(53,84,55);fill-rule:nonzero;"/>
            <path d="M704.8,889C715,889 722.8,891.8 728.3,897.4C733.8,903 736.5,913.1 736.5,927.8L736.5,963.1C736.5,968 738.2,970.5 741.7,970.5C744.2,970.5 746.6,969.6 749.1,967.7C750.1,968.3 750.6,969.4 750.6,971C750.6,974.6 750.1,977.3 749.1,979.1C747.1,981 743.8,983 739.2,985.1C734.6,987.2 730.3,988.3 726.2,988.3C722.7,988.3 719.4,987.2 716.2,985.1C713,983 710.9,980.6 709.9,977.8C709.8,977.8 709.2,978.2 708.2,979C707.2,979.8 705.9,980.7 704.3,981.7C702.7,982.7 700.8,983.7 698.7,984.8C696.6,985.8 694.1,986.7 691.2,987.4C688.3,988.1 685.4,988.5 682.5,988.5C674.5,988.5 668.1,986.3 663.4,981.8C658.7,977.4 656.3,971.8 656.3,965.1C656.3,961.2 657.2,957.6 659,954.3C660.8,951 662.9,948.3 665.3,946.2C667.7,944.1 670.9,942.1 675,940.3C679.1,938.5 682.6,937.1 685.5,936.2C688.4,935.3 692.2,934.2 696.7,932.9C701.3,931.7 704.4,930.8 706.2,930.2C707.5,929.8 708.2,928.7 708.2,926.9L708.2,919C708.2,907.1 704.6,901.1 697.3,901.1C688.9,901.1 684.6,906 684.6,915.7C684.6,918.9 683.3,921.3 680.7,922.8C678.1,924.3 675.2,925.1 672,925.1C665.3,925.1 660.7,922.9 658.3,918.6C658.3,911.2 663.2,904.4 673,898.2C682.7,892.1 693.3,889 704.8,889ZM696.1,972.8C699.9,972.8 702.8,971.9 704.9,970.1C707,968.3 708.1,966.1 708.1,963.4L708.1,941.4C707.8,941.5 706.4,942 703.8,942.8C701.3,943.6 699.6,944.1 698.9,944.4C698.2,944.7 696.8,945.2 694.8,946C692.8,946.8 691.3,947.5 690.5,948.2C689.7,948.9 688.7,949.7 687.6,950.7C686.4,951.7 685.6,952.8 685.2,954C684.8,955.2 684.5,956.5 684.5,957.9C684.5,963.1 685.6,966.9 687.9,969.2C690.2,971.7 692.9,972.8 696.1,972.8Z" style="fill:rgb(53,84,55);fill-rule:nonzero;"/>
            <path d="M837.4,889.5C843.8,889.5 850.1,892.2 856.2,897.6C856.2,905.2 855.3,910.8 853.5,914.4C851.7,918 848.4,919.9 843.6,919.9C840.7,919.9 837.3,918.2 833.6,914.9C829.8,911.6 826.5,909.9 823.6,909.9C819.2,909.9 816.1,912.3 814.3,917.2C812.5,922.1 811.6,927.3 811.6,932.8L811.6,954.8C811.6,964 812.1,970.5 813.1,974.4C813.4,975.4 815.3,976.6 818.9,977.9C822.5,979.2 824.8,979.9 826,979.9C826.4,979.9 826.7,981.1 826.8,983.5C826.9,985.9 826.8,987.4 826.5,988C824.8,987.9 820.3,987.5 813.2,987C806.1,986.5 800.8,986.2 797.5,986.2C794,986.2 788.6,986.5 781.1,987C773.6,987.5 769.2,987.8 767.6,988C767,987.4 766.7,985.9 766.7,983.5C766.7,981.1 767,979.9 767.6,979.9C769.2,979.9 771.9,979.2 775.7,977.9C779.5,976.6 781.5,975.4 781.8,974.4C782.8,970 783.3,964.5 783.3,957.8L783.3,927.9C783.3,919.8 782,914.3 779.4,911.5C778.4,910.3 776.9,909.4 774.8,908.7C772.8,908 771,907.5 769.6,907.2C768.1,906.9 767.4,906.7 767.4,906.5C767.4,901.4 767.8,898.9 768.5,898.9C770.2,898.9 773.2,898.5 777.2,897.7C781.3,896.9 786.6,895.8 793.1,894.3C799.6,892.8 804.7,891.8 808.4,891C809.9,890.6 810.7,890.3 810.8,890.3C811.5,890.3 812.3,890.8 813,891.7C813.7,892.6 814.1,893.4 814.1,894C813.8,895.7 813.6,897.6 813.4,899.7C813.3,901.7 813.1,903 813,903.6C819.8,894.2 828,889.5 837.4,889.5Z" style="fill:rgb(53,84,55);fill-rule:nonzero;"/>
            <path d="M919.5,889.5C932.6,889.5 943.1,894 951,903.1C958.9,912.2 962.9,921.5 962.9,930.9C962.9,934.2 962.2,936.4 960.8,937.4C959.4,938.4 956.7,938.9 952.6,938.9L903.3,938.9C902.4,938.9 902,939.4 902,940.4C902,948.3 904.2,955.3 908.7,961.6C913.1,967.9 919.5,971 927.8,971C932.6,971 937.2,970.3 941.5,968.9C945.9,967.5 948.9,966.3 950.7,965.2C952.4,964.1 954.8,962.5 957.7,960.3C959,960.9 959.7,962.3 959.7,964.4C959.7,966.1 959.4,967.6 958.8,968.8C957.3,972.3 953,976.4 945.7,981.2C938.4,986 930.3,988.4 921.3,988.4C907.9,988.4 896.4,983.5 886.7,973.8C877,964.1 872.2,952.3 872.2,938.7C872.2,924.7 876.6,913 885.3,903.6C894,894.2 905.4,889.5 919.5,889.5ZM918.4,901.5C912.7,901.5 908.6,904.2 906,909.7C903.4,915.2 902.1,920.5 902.1,925.7C902.1,926.6 902.6,927 903.6,927L931.3,927C933.3,927 934.4,925.6 934.4,922.9C934.4,917.4 932.9,912.4 929.9,908.1C926.9,903.7 923.1,901.5 918.4,901.5Z" style="fill:rgb(53,84,55);fill-rule:nonzero;"/>
            <path d="M1122.1,907.8C1122.1,904.6 1120.2,902.3 1116.4,900.8C1112.6,899.3 1108.8,898.6 1105.1,898.6L1104.2,898.6C1103.6,898.6 1103.3,897.4 1103.1,894.9C1103,892.4 1103.2,890.9 1103.8,890.3C1105.8,890.4 1110.3,890.8 1117.2,891.4C1124.1,892 1129.2,892.3 1132.6,892.3C1135.7,892.3 1139.9,892 1145.5,891.4C1151,890.8 1155,890.5 1157.3,890.3C1157.7,891.6 1158,893.1 1158,894.7C1158,897.2 1157.7,898.4 1157.1,898.4C1155.5,898.4 1152.3,899.5 1147.5,901.8C1142.7,904.1 1139.7,906.5 1138.6,909.1L1102.6,984.8C1102.2,985.8 1101.1,986.8 1099.4,987.9C1097.7,988.9 1096.1,989.4 1094.5,989.4C1093,989.4 1092,988.6 1091.2,987L1065.2,930.7L1040.3,984.6C1039.9,985.6 1038.9,986.7 1037.5,987.8C1036,988.9 1034.2,989.4 1032,989.4C1030.5,989.4 1029.4,988.6 1028.5,987L991.6,905.8C990.6,903.8 988.5,902.1 985.3,900.7C982.1,899.3 979.6,898.6 977.9,898.6C977.3,898.6 977,897.2 977,894.5C977,892.2 977.2,890.8 977.7,890.4C979.4,890.5 983.8,890.9 990.7,891.4C997.6,891.9 1002.8,892.2 1006.3,892.2C1009.5,892.2 1015.1,891.9 1023,891.3C1030.9,890.7 1035.5,890.4 1036.6,890.4C1036.9,891.3 1037.1,892.8 1037.1,894.9C1037.2,897 1037,898.1 1036.6,898.3C1034.9,898.3 1032.2,899 1028.5,900.4C1024.9,901.8 1023,903.4 1023,905.3C1023,907.2 1028.9,921.6 1040.7,948.5C1042.3,945 1044.2,940.9 1046.5,936.2C1048.8,931.5 1050.4,928.1 1051.4,926.1C1052.4,924.1 1053.5,921.8 1054.6,919.3C1055.7,916.8 1056.4,915 1056.8,913.8C1057.2,912.6 1057.3,911.8 1057.3,911.2C1057.3,907.7 1056.8,905.2 1055.8,903.6C1054.8,902.1 1053,900.8 1050.6,899.7C1048.7,899 1045.7,898.6 1041.7,898.6C1041.1,898.6 1040.8,897.4 1040.7,895C1040.6,892.6 1040.9,891.1 1041.5,890.5C1043.4,890.6 1047.6,891 1054.3,891.5C1060.9,892 1066,892.3 1069.5,892.3C1072.7,892.3 1078,892 1085.5,891.4C1093,890.8 1097.5,890.5 1098.9,890.5C1099.2,891.2 1099.2,892.8 1099,895.2C1098.8,897.6 1098.5,898.8 1098,898.8C1095.5,898.8 1092.9,899.3 1090.3,900.3C1087.6,901.3 1086.3,903 1086.3,905.3C1086.3,907.5 1092,922 1103.3,948.7C1105.9,943 1108.9,936.7 1112.4,929.7C1115.8,922.7 1118.3,917.6 1119.9,914.2C1121.3,910.8 1122.1,908.7 1122.1,907.8Z" style="fill:rgb(53,84,55);fill-rule:nonzero;"/>
            <path d="M1175.4,903.9C1185.4,894.3 1197.5,889.5 1211.7,889.5C1226,889.5 1238.1,894.3 1248,903.9C1258,913.5 1262.9,925.2 1262.9,939C1262.9,952.8 1258,964.5 1248.1,974.1C1238.2,983.7 1226.1,988.5 1211.7,988.5C1197.4,988.5 1185.3,983.7 1175.4,974.1C1165.4,964.5 1160.5,952.8 1160.5,939C1160.5,925.2 1165.4,913.5 1175.4,903.9ZM1208.7,901.5C1204.5,901.5 1201,903.2 1198.2,906.5C1195.4,909.8 1193.6,913.7 1192.7,918C1191.8,922.3 1191.4,927.1 1191.4,932.3C1191.4,961.8 1198.9,976.6 1213.9,976.6C1220,976.6 1224.5,973.6 1227.3,967.7C1230.1,961.7 1231.6,954.8 1231.6,946.8C1231.6,916.5 1224,901.5 1208.7,901.5Z" style="fill:rgb(53,84,55);fill-rule:nonzero;"/>
            <path d="M1294,903.9C1304,894.3 1316.1,889.5 1330.3,889.5C1344.6,889.5 1356.7,894.3 1366.6,903.9C1376.6,913.5 1381.5,925.2 1381.5,939C1381.5,952.8 1376.6,964.5 1366.7,974.1C1356.8,983.7 1344.7,988.5 1330.3,988.5C1316,988.5 1303.9,983.7 1294,974.1C1284,964.5 1279.1,952.8 1279.1,939C1279,925.2 1284,913.5 1294,903.9ZM1327.3,901.5C1323.1,901.5 1319.6,903.2 1316.8,906.5C1314,909.8 1312.2,913.7 1311.3,918C1310.4,922.3 1310,927.1 1310,932.3C1310,961.8 1317.5,976.6 1332.5,976.6C1338.6,976.6 1343.1,973.6 1345.9,967.7C1348.7,961.7 1350.2,954.8 1350.2,946.8C1350.2,916.5 1342.5,901.5 1327.3,901.5Z" style="fill:rgb(53,84,55);fill-rule:nonzero;"/>
            <path d="M1448.2,889.5C1454.2,889.5 1459.3,890.2 1463.5,891.5C1463.9,891.5 1464.2,890.5 1464.2,888.4L1464.2,871.2C1464.2,865.1 1463.8,859.9 1462.9,855.5C1462.2,853.2 1458.4,852 1451.6,852L1449.6,852C1448.7,852 1448.3,850.5 1448.3,847.6C1448.3,845.1 1448.7,843.9 1449.6,843.9C1454.1,843.5 1458.7,842.9 1463.2,842.2C1467.8,841.5 1471.7,840.7 1474.9,840C1478.1,839.3 1481,838.5 1483.5,837.8C1486,837.1 1488,836.5 1489.5,836.1L1491.7,835.4L1492.1,835.4C1492.7,835.4 1493.3,835.8 1493.8,836.7C1494.4,837.6 1494.7,838.4 1494.9,839.1C1493.3,845.6 1492.5,853 1492.5,861.1L1492.5,954.9C1492.5,961.2 1492.9,966.4 1493.8,970.6C1494.1,971.6 1494.9,972.4 1496.2,973C1497.5,973.6 1498.9,973.9 1500.3,974.1C1501.8,974.2 1503.1,974.3 1504.4,974.3L1506.6,974.5C1507,974.6 1507.3,975.5 1507.3,977.1C1507.3,980.7 1506.9,982.6 1506,982.6C1503.8,982.7 1500.9,983 1497.4,983.5C1493.8,983.9 1490.3,984.4 1486.7,984.9C1483.1,985.4 1479.8,985.9 1476.6,986.4C1473.4,986.9 1470.8,987.4 1468.7,987.8L1465.4,988.2C1464.5,988.2 1464.1,987 1464.1,984.5L1464.1,980C1464.1,979.4 1464,979.1 1463.9,978.9C1463.8,978.8 1463.5,978.8 1463.2,979.1C1457.1,985.2 1449.7,988.3 1441.2,988.3C1429.4,988.3 1418.9,983.9 1409.7,975.1C1400.5,966.3 1395.8,954.8 1395.8,940.7C1395.8,926.2 1400.8,914 1410.7,904.2C1420.8,894.4 1433.2,889.5 1448.2,889.5ZM1446.9,901.3C1440.1,901.3 1435.1,904 1432,909.5C1428.9,915 1427.3,923.6 1427.3,935.6C1427.3,961.9 1433.8,975.1 1446.9,975.1C1451.8,975.1 1456,973.7 1459.2,970.8C1462.4,967.9 1464.1,964.5 1464.1,960.4L1464.1,920.7C1464.1,919 1464,917.3 1463.7,915.7C1463.4,914.1 1462.8,912.1 1461.7,909.6C1460.7,907.1 1458.9,905.1 1456.4,903.6C1453.9,902 1450.7,901.3 1446.9,901.3Z" style="fill:rgb(53,84,55);fill-rule:nonzero;"/>
        </g>
        <g>
            <path d="M731.1,1074.7C733.5,1074.7 736.5,1075 740.1,1075.6C743.7,1076.2 746.2,1076.6 747.6,1076.8C748.7,1081.8 749.3,1087.3 749.5,1093.4C749.5,1093.9 748.8,1094.2 747.4,1094.2C745.9,1094.2 745.1,1093.8 745,1093.1C744.5,1090.1 742.9,1087.2 740.4,1084.5C737.9,1081.8 735,1080.4 731.7,1080.4C723.9,1080.4 720,1083.6 720,1090C720,1091.6 720.2,1093.1 720.6,1094.3C721,1095.5 721.9,1096.7 723.1,1097.9C724.3,1099 725.3,1099.8 725.9,1100.3C726.5,1100.8 728,1101.7 730.2,1102.9C732.4,1104.1 733.8,1104.9 734.3,1105.3C734.7,1105.5 736,1106.2 738.1,1107.5C740.2,1108.7 741.7,1109.6 742.6,1110.2C743.5,1110.7 744.7,1111.7 746.4,1113C748.1,1114.3 749.3,1115.5 750.1,1116.5C750.9,1117.5 751.6,1118.8 752.3,1120.4C753,1122 753.4,1123.6 753.4,1125.2C753.4,1131.6 750.9,1136.9 745.9,1141.2C740.9,1145.5 735.1,1147.6 728.4,1147.6C726.1,1147.6 724,1147.5 722.2,1147.2C720.3,1146.9 718.1,1146.5 715.5,1145.8C712.9,1145.2 710.9,1144.7 709.5,1144.5C708.9,1142.8 708.2,1140.1 707.6,1136.4C707,1132.7 706.7,1129.8 706.7,1127.6C707.6,1127 708.2,1126.6 708.6,1126.6C710.2,1126.6 711.1,1126.9 711.2,1127.6C711.8,1130.8 713.9,1134 717.3,1137.1C720.7,1140.2 724.4,1141.7 728.4,1141.7C731.9,1141.7 734.7,1140.8 736.9,1138.9C739.1,1137 740.2,1134.3 740.2,1130.7C740.2,1128.9 739.8,1127.2 739.1,1125.6C738.4,1124 737.3,1122.6 735.7,1121.4C734.1,1120.2 732.7,1119.1 731.3,1118.3C729.9,1117.5 728,1116.4 725.5,1115.1C723,1113.8 721.2,1112.8 720,1112C711.6,1107.1 707.3,1101.3 707.3,1094.6C707.3,1088.8 709.7,1084 714.4,1080.3C719.3,1076.5 724.8,1074.7 731.1,1074.7Z" style="fill:rgb(53,84,55);fill-rule:nonzero;"/>
            <path d="M794.6,1084.9L785.2,1084.9C784.7,1084.9 784.4,1083.8 784.4,1081.5C784.4,1080.9 784.5,1080.5 784.6,1080.4C787.7,1079 791.1,1076.1 794.8,1071.8C796,1070.4 797.2,1068.8 798.3,1067C799.4,1065.2 800.4,1063.7 801.1,1062.4C801.9,1061.1 802.2,1060.4 802.2,1060.3C805.4,1060.3 807.1,1060.6 807.1,1061.1L807.1,1077.2C809.9,1077.2 814.2,1077.2 819.9,1077.3C825.6,1077.4 828.7,1077.4 829,1077.4C829.9,1077.4 830.3,1077.9 830.3,1078.9C830.3,1080.8 829.8,1082.9 828.7,1085.1L807.1,1085.1L807.1,1124.9C807.1,1129.2 808.2,1132.7 810.4,1135.3C812.6,1137.9 815.5,1139.2 819.1,1139.2C822.3,1139.2 825.7,1138.2 829.2,1136.1C829.5,1135.9 830,1136.3 830.7,1137.5C831.3,1138.6 831.6,1139.3 831.5,1139.4C829.9,1141.1 827.4,1142.8 824,1144.5C820.6,1146.2 817.2,1147 813.6,1147C808.2,1147 803.7,1145.2 800.1,1141.6C796.5,1138 794.7,1132.9 794.7,1126.3L794.7,1084.9L794.6,1084.9Z" style="fill:rgb(53,84,55);fill-rule:nonzero;"/>
            <path d="M926.4,1090.3L926.4,1122.8C926.4,1127.5 926.8,1131.6 927.5,1135.1C927.7,1135.9 928.3,1136.5 929.3,1136.9C930.3,1137.3 931.3,1137.6 932.4,1137.7C933.5,1137.8 934.6,1137.9 935.6,1137.9L937.1,1138.1C937.4,1138.2 937.6,1138.8 937.6,1139.9C937.6,1140.2 937.5,1140.7 937.2,1141.4C936.9,1142.1 936.6,1142.5 936.3,1142.5C934.7,1142.6 932.9,1142.8 930.9,1143.1C928.9,1143.4 927,1143.8 925.3,1144.2C923.6,1144.6 921.9,1145.1 920.4,1145.5C918.9,1145.9 917.7,1146.3 916.8,1146.6L915.3,1146.9C914.4,1146.9 914,1146 914,1144.3L914,1136L913.7,1135.2C906.6,1142.9 899.5,1146.7 892.4,1146.7C888.4,1146.7 885,1145.7 882.1,1143.7C879.2,1141.7 877.1,1139.1 875.8,1135.7C874.4,1132.4 873.5,1129.2 873,1126.1C872.5,1123 872.2,1119.8 872.2,1116.4L872.2,1096C872.2,1091.8 871.4,1088.9 869.9,1087.2C868.8,1085.9 867.5,1085 865.9,1084.5C864.3,1084 863,1083.8 862,1083.8C861,1083.8 860.5,1083.7 860.5,1083.5C860.5,1080.9 860.8,1079.6 861.5,1079.4C873,1077.7 880.4,1076.3 883.9,1075.2C884,1075.2 884.3,1075.1 884.7,1075C885.1,1075 885.4,1075.5 885.5,1076.4C885.6,1077.3 885.6,1078 885.5,1078.4C884.9,1083.6 884.5,1087.6 884.5,1090.4L884.5,1112.3C884.5,1120.6 885.7,1126.8 888.2,1130.7C890.7,1134.6 894.7,1136.6 900.4,1136.6C903.6,1136.6 906.7,1135.3 909.6,1132.8C912.5,1130.3 914,1128.1 914,1126.2L914,1095.9C914,1091.7 913.2,1088.8 911.7,1087.1C910.6,1085.8 909.3,1084.9 907.7,1084.4C906.1,1083.9 904.8,1083.7 903.8,1083.7C902.8,1083.7 902.3,1083.6 902.3,1083.4C902.3,1080.8 902.6,1079.5 903.3,1079.3C914.8,1077.6 922.2,1076.2 925.7,1075.1C925.8,1075.1 926.1,1075 926.5,1074.9C926.9,1074.9 927.2,1075.4 927.3,1076.3C927.4,1077.2 927.4,1077.9 927.3,1078.3C926.8,1083.8 926.4,1087.7 926.4,1090.3Z" style="fill:rgb(53,84,55);fill-rule:nonzero;"/>
            <path d="M1005.4,1074.2C1010,1074.2 1014.1,1075.1 1017.6,1077C1018.4,1077 1018.7,1076 1018.7,1074.1L1018.7,1056.6C1018.7,1052.9 1018.4,1049.5 1017.7,1046.2C1017.2,1044.5 1014.4,1043.6 1009.4,1043.6L1007.9,1043.6C1007.3,1043.6 1006.9,1043 1006.9,1041.8C1006.9,1040.1 1007.2,1039.2 1007.9,1039.2C1011.1,1038.9 1014.1,1038.4 1016.9,1037.9C1019.7,1037.4 1021.8,1036.8 1023.4,1036.3C1025,1035.8 1026.3,1035.2 1027.4,1034.8C1028.5,1034.3 1029.3,1033.9 1029.8,1033.6L1030.4,1033.1L1030.7,1033.1C1031.1,1033.1 1031.6,1033.4 1032,1034C1032.4,1034.6 1032.7,1035.2 1032.8,1035.7C1031.6,1039.2 1031,1043.9 1031,1049.8L1031,1122.8C1031,1128 1031.3,1132.1 1032,1135.1C1032.2,1135.9 1032.8,1136.5 1033.8,1136.9C1034.8,1137.3 1035.8,1137.6 1036.8,1137.7C1037.8,1137.8 1038.8,1137.9 1039.8,1137.9L1041.3,1138.1C1041.6,1138.2 1041.8,1138.9 1041.8,1140C1041.8,1141.6 1041.5,1142.4 1040.8,1142.4C1039.2,1142.5 1037.4,1142.7 1035.4,1143C1033.4,1143.3 1031.5,1143.7 1029.7,1144.1C1027.9,1144.5 1026.3,1144.9 1024.8,1145.2C1023.3,1145.6 1022,1145.9 1021.1,1146.3L1019.6,1146.6C1019,1146.6 1018.6,1145.7 1018.6,1143.8L1018.6,1141.9C1018.6,1141.3 1018.4,1141 1018,1141.3C1011.9,1144.7 1006.2,1146.3 1000.8,1146.3C991.8,1146.3 984.3,1143.1 978.2,1136.7C972.1,1130.3 969.1,1122.7 969.1,1113.8C969.1,1103.3 972.8,1094.1 980.2,1086.1C987.7,1078.2 996.1,1074.2 1005.4,1074.2ZM1003.2,1081C996.9,1081 992,1083.8 988.4,1089.4C984.8,1095 983,1101.6 983,1109C983,1116.9 985.1,1123.7 989.3,1129.5C993.5,1135.3 999.4,1138.2 1006.8,1138.2C1010.5,1138.2 1013.3,1137.4 1015.4,1135.7C1017.5,1134 1018.5,1131.8 1018.5,1129L1018.5,1090.4C1018.5,1088.1 1017.3,1086 1014.8,1084C1012.6,1082 1008.7,1081 1003.2,1081Z" style="fill:rgb(53,84,55);fill-rule:nonzero;"/>
            <path d="M1096.3,1123.7C1096.3,1130 1096.7,1134.8 1097.6,1138.1C1097.8,1138.9 1099.2,1139.6 1101.8,1140.3C1104.4,1141 1106.2,1141.4 1107.3,1141.4C1107.6,1141.4 1107.8,1142 1107.9,1143.3C1108,1144.6 1108,1145.5 1107.7,1146.1C1096.9,1145.6 1091.1,1145.3 1090.3,1145.3C1089.5,1145.3 1083.6,1145.6 1072.6,1146.1C1072.2,1145.7 1072,1144.8 1072,1143.4C1072,1142 1072.2,1141.4 1072.6,1141.4C1073.9,1141.4 1075.8,1141.1 1078.4,1140.3C1080.9,1139.6 1082.3,1138.9 1082.5,1138.1C1083.3,1135 1083.6,1131.2 1083.6,1126.7L1083.6,1096C1083.6,1091.8 1082.8,1088.9 1081.3,1087.2C1080.2,1085.9 1078.9,1085 1077.3,1084.5C1075.7,1084 1074.4,1083.8 1073.4,1083.8C1072.4,1083.8 1071.9,1083.7 1071.9,1083.5C1071.9,1080.9 1072.2,1079.6 1072.9,1079.4C1084.4,1077.7 1091.8,1076.3 1095.3,1075.2L1095.6,1075C1095.8,1075 1096,1075 1096.1,1075C1096.5,1075 1096.8,1075.5 1096.9,1076.4C1097,1077.3 1097,1078 1096.9,1078.4C1096.4,1082.7 1096.1,1086.6 1096.1,1090.1L1096.1,1123.7L1096.3,1123.7ZM1083.1,1055.1C1081.5,1053.5 1080.7,1051.6 1080.7,1049.3C1080.7,1047 1081.5,1045.1 1083.1,1043.5C1084.7,1041.9 1086.6,1041.1 1088.9,1041.1C1091.2,1041.1 1093.1,1041.9 1094.7,1043.5C1096.3,1045.1 1097.1,1047 1097.1,1049.3C1097.1,1051.6 1096.3,1053.5 1094.7,1055.1C1093.1,1056.7 1091.2,1057.5 1088.9,1057.5C1086.5,1057.5 1084.6,1056.7 1083.1,1055.1Z" style="fill:rgb(53,84,55);fill-rule:nonzero;"/>
            <path d="M1175,1074.7C1184.7,1074.7 1193.1,1078.2 1200,1085.2C1206.9,1092.2 1210.4,1100.7 1210.4,1110.5C1210.4,1120.5 1207,1129 1200.3,1136.1C1193.5,1143.2 1185.2,1146.7 1175.4,1146.7C1165.6,1146.7 1157.2,1143.2 1150.2,1136.1C1143.3,1129 1139.8,1120.5 1139.8,1110.5C1139.8,1100.4 1143.2,1091.9 1149.9,1085C1156.6,1078.1 1165,1074.7 1175,1074.7ZM1173.3,1081C1167.6,1081 1162.9,1083.6 1159.3,1088.9C1155.7,1094.1 1153.9,1100.6 1153.9,1108.1C1153.9,1117 1156.2,1124.6 1160.8,1130.9C1165.4,1137.2 1170.8,1140.4 1176.9,1140.4C1182.6,1140.4 1187.3,1137.7 1191,1132.3C1194.7,1126.9 1196.5,1120.4 1196.5,1112.8C1196.5,1104 1194.2,1096.5 1189.5,1090.3C1184.8,1084.1 1179.4,1081 1173.3,1081Z" style="fill:rgb(53,84,55);fill-rule:nonzero;"/>
            <path d="M1270.8,1074.7C1273.2,1074.7 1276.2,1075 1279.8,1075.6C1283.4,1076.2 1285.9,1076.6 1287.3,1076.8C1288.4,1081.8 1289,1087.3 1289.2,1093.4C1289.2,1093.9 1288.5,1094.2 1287.1,1094.2C1285.6,1094.2 1284.8,1093.8 1284.7,1093.1C1284.2,1090.1 1282.6,1087.2 1280.1,1084.5C1277.6,1081.8 1274.7,1080.4 1271.4,1080.4C1263.6,1080.4 1259.7,1083.6 1259.7,1090C1259.7,1091.6 1259.9,1093.1 1260.3,1094.3C1260.7,1095.5 1261.6,1096.7 1262.8,1097.9C1264,1099 1265,1099.8 1265.6,1100.3C1266.2,1100.8 1267.7,1101.7 1269.9,1102.9C1272.1,1104.1 1273.5,1104.9 1274,1105.3C1274.4,1105.5 1275.7,1106.2 1277.8,1107.5C1279.9,1108.7 1281.4,1109.6 1282.3,1110.2C1283.2,1110.7 1284.4,1111.7 1286.1,1113C1287.8,1114.3 1289,1115.5 1289.8,1116.5C1290.6,1117.5 1291.3,1118.8 1292,1120.4C1292.7,1122 1293.1,1123.6 1293.1,1125.2C1293.1,1131.6 1290.6,1136.9 1285.6,1141.2C1280.6,1145.5 1274.8,1147.6 1268.1,1147.6C1265.8,1147.6 1263.7,1147.5 1261.9,1147.2C1260,1146.9 1257.8,1146.5 1255.2,1145.8C1252.6,1145.2 1250.6,1144.7 1249.2,1144.5C1248.6,1142.8 1247.9,1140.1 1247.3,1136.4C1246.7,1132.7 1246.4,1129.8 1246.4,1127.6C1247.3,1127 1247.9,1126.6 1248.3,1126.6C1249.9,1126.6 1250.8,1126.9 1250.9,1127.6C1251.5,1130.8 1253.6,1134 1257,1137.1C1260.4,1140.2 1264.1,1141.7 1268.1,1141.7C1271.6,1141.7 1274.4,1140.8 1276.6,1138.9C1278.8,1137 1279.9,1134.3 1279.9,1130.7C1279.9,1128.9 1279.5,1127.2 1278.8,1125.6C1278.1,1124 1277,1122.6 1275.4,1121.4C1273.8,1120.2 1272.4,1119.1 1271,1118.3C1269.6,1117.5 1267.7,1116.4 1265.2,1115.1C1262.7,1113.8 1260.9,1112.8 1259.7,1112C1251.3,1107.1 1247,1101.3 1247,1094.6C1247,1088.8 1249.4,1084 1254.1,1080.3C1259.1,1076.5 1264.6,1074.7 1270.8,1074.7Z" style="fill:rgb(53,84,55);fill-rule:nonzero;"/>
        </g>
    </g>
</svg>
