<?xml version="1.0" encoding="UTF-8" standalone="no"?>
<!DOCTYPE svg PUBLIC "-//W3C//DTD SVG 1.1//EN" "http://www.w3.org/Graphics/SVG/1.1/DTD/svg11.dtd">
<svg width="100%" height="100%" viewBox="0 0 1475 438" version="1.1" xmlns="http://www.w3.org/2000/svg" xmlns:xlink="http://www.w3.org/1999/xlink" xml:space="preserve" style="fill-rule:evenodd;clip-rule:evenodd;stroke-linejoin:round;stroke-miterlimit:1.41421;">
    <g transform="matrix(1,0,0,1,-262.819,-481.148)">
        <path d="M407,601.6C414.2,614.6 420.1,628.9 425.8,644.8C426.4,646.3 427.8,647.4 429.4,647.5C469.5,650.4 505.1,660 535.4,677.8C537.6,679.1 539,678.1 538.4,675.6C518.2,579.5 492.8,516.2 433.6,481.7C431.7,480.6 429.2,481.2 427.9,483C401.5,520 403.3,576.6 404.4,593.1C404.6,596.1 405.5,599 407,601.6Z" style="fill:rgb(53,84,55);fill-rule:nonzero;"/>
        <path d="M619.7,828.8C589.4,715.4 516.9,666.7 417.2,659.6C415.6,659.5 414.2,658.4 413.7,656.9C392,596.6 366.9,558.8 283.8,527C281.7,526.2 279.3,527.3 278.5,529.4C245.9,620.2 265,681.4 327.7,771.6C330.6,775.8 328.9,778.6 323.8,777.9C306.6,775.5 288.7,770.5 270.3,763.8C264.8,761.8 262.6,764.4 265.4,769.5C293.8,822.7 333.8,868.9 403.1,897.7C442.6,914.1 485.5,921 528.3,918.1C573.6,915 610,900 620.6,850.1C621.8,843.1 621.6,835.8 619.7,828.8ZM383.8,669.4C376,656.6 367.9,644.4 359.5,632.8C346.4,641.6 339.5,650.4 335.1,663.8C334.5,665.6 334,665.5 333.9,663.6C333.3,645.6 339.6,632.3 352.7,623.6C344.4,612.7 335.8,602.4 326.9,592.8C313.7,601.6 306.9,610.5 302.4,623.8C301.8,625.6 301.3,625.5 301.2,623.6C300.7,606.1 306.6,593.1 318.9,584.4C309.9,575.2 300.6,566.7 291.1,558.8C289.6,557.6 289.8,557.1 291.7,557.8C340.7,576.1 369,616.1 384.9,668.9C385.6,671.3 385.1,671.5 383.8,669.4ZM517.3,802.6C466.8,801.9 440.2,785.9 432.5,758C432.1,756.6 433,755.4 434.5,755.5C453.7,755.8 472.3,757.7 489.4,763.1C492.9,764.2 496.2,766.1 498.8,768.6C508.7,778.2 515.8,788.6 519.2,800C519.7,801.5 518.7,802.6 517.3,802.6Z" style="fill:rgb(53,84,55);fill-rule:nonzero;"/>
        <g>
            <path d="M822.2,703.9L822.2,667.5L821.8,666.6C808.1,666.3 799.6,666.2 796.3,666.2C778.3,666.3 769.2,666.6 769.2,666.9L769.6,667.3L769.6,703C769.6,710.7 770.2,716.8 771.3,721.3C771.6,722.3 773.6,723.5 777.3,724.8C781,726.1 783.5,726.8 784.8,726.8C785.4,726.8 785.7,727.9 785.8,730.1C785.9,732.3 785.7,733.9 785.3,734.9C784.6,734.9 780.1,734.6 771.9,734C763.7,733.4 757.7,733.1 753.9,733.1C750.1,733.1 744.6,733.4 737.4,733.9C730.2,734.4 725.5,734.7 723.3,734.9C722.7,734.3 722.4,733.1 722.4,731.2C722.4,728.3 722.5,726.8 722.8,726.8C724.5,726.8 727.3,726.2 731.1,725.1C734.9,723.9 737,722.8 737.4,721.6C738.4,717.7 738.9,711.8 738.9,703.9L738.9,620.6C738.9,611.7 738.4,606.1 737.4,603.6C736.7,602 734.6,600.6 731.3,599.5C728,598.3 725.4,597.8 723.7,597.8C723.1,597.8 722.8,596.3 722.8,593.4C722.8,591.2 722.9,590 723.2,589.7C743.3,590.6 753.4,591 753.5,591C757.3,591 767.9,590.6 785.4,589.7C785.8,590.4 786.1,592 786.1,594.3C786.1,596.6 785.8,597.8 785.2,597.8C783.9,597.8 781.3,598.4 777.6,599.7C773.8,600.9 771.7,602.1 771.3,603.1C770.1,606.2 769.6,612.3 769.6,621.6L769.6,652.6L770,653.3C784.3,653.6 793,653.7 796.2,653.7C800.1,653.7 808.6,653.6 821.7,653.3C822,653 822.1,652.7 822.1,652.4L822.1,620.8C822.1,613.2 821.6,607.5 820.6,603.6C820.2,602.4 818.2,601.2 814.6,599.9C811,598.6 808.5,597.9 806.9,597.9C806.3,597.9 806,596.7 805.9,594.3C805.8,591.9 806.1,590.4 806.7,589.8C826.8,590.7 837.6,591.1 839.2,591.1C841.4,591.1 851.2,590.7 868.7,589.8C869.1,591.1 869.4,592.4 869.4,593.7C869.4,596.5 869,597.8 868.3,597.8C867,597.8 864.4,598.4 860.7,599.7C856.9,600.9 854.9,602.1 854.6,603.1C853.4,607.5 852.9,613.6 852.9,621.6L852.9,703C852.9,710.9 853.5,717 854.6,721.5C854.9,722.5 856.9,723.6 860.6,724.8C864.3,726 866.8,726.5 868.1,726.5C868.7,726.5 869,728 869,731.1C869,732.3 868.8,733.5 868.3,734.8C867,734.8 862.7,734.5 855.4,733.9C848.1,733.3 842.6,733 838.8,733C834.9,733 828.9,733.3 821,733.8C813.1,734.3 808.2,734.6 806.3,734.8C805.7,734.2 805.5,732.7 805.5,730.3C805.6,727.9 805.9,726.7 806.5,726.7C808.1,726.7 810.8,726 814.6,724.7C818.4,723.4 820.5,722.2 820.9,721C821.8,717.8 822.2,712.1 822.2,703.9Z" style="fill:rgb(53,84,55);fill-rule:nonzero;"/>
            <path d="M934.7,636.1C944.9,636.1 952.7,638.9 958.2,644.5C963.7,650.1 966.4,660.2 966.4,674.9L966.4,710.2C966.4,715.1 968.1,717.6 971.6,717.6C974.1,717.6 976.5,716.7 979,714.8C980,715.4 980.5,716.5 980.5,718.1C980.5,721.7 980,724.4 979,726.2C977,728.1 973.7,730.1 969.1,732.2C964.5,734.3 960.2,735.4 956.1,735.4C952.6,735.4 949.3,734.3 946.1,732.2C942.9,730.1 940.8,727.7 939.8,724.9C939.7,724.9 939.1,725.3 938.1,726.1C937.1,726.9 935.8,727.8 934.2,728.8C932.6,729.8 930.7,730.8 928.6,731.9C926.5,732.9 924,733.8 921.1,734.5C918.2,735.2 915.3,735.6 912.4,735.6C904.4,735.6 898,733.4 893.3,728.9C888.6,724.5 886.2,718.9 886.2,712.2C886.2,708.3 887.1,704.7 888.9,701.4C890.7,698.1 892.8,695.4 895.2,693.3C897.6,691.2 900.8,689.2 904.9,687.4C909,685.6 912.5,684.2 915.4,683.3C918.3,682.4 922.1,681.3 926.6,680C931.2,678.8 934.3,677.9 936.1,677.3C937.4,676.9 938.1,675.8 938.1,674L938.1,666.1C938.1,654.2 934.5,648.2 927.2,648.2C918.8,648.2 914.5,653.1 914.5,662.8C914.5,666 913.2,668.4 910.6,669.9C908,671.4 905.1,672.2 901.9,672.2C895.2,672.2 890.6,670 888.2,665.7C888.2,658.3 893.1,651.5 902.9,645.3C912.6,639.1 923.2,636.1 934.7,636.1ZM926,719.8C929.8,719.8 932.7,718.9 934.8,717.1C936.9,715.3 938,713.1 938,710.4L938,688.4C937.7,688.5 936.3,689 933.7,689.8C931.2,690.6 929.5,691.1 928.8,691.4C928.1,691.7 926.7,692.2 924.7,693C922.7,693.8 921.2,694.5 920.4,695.2C919.6,695.9 918.6,696.7 917.5,697.7C916.3,698.7 915.5,699.8 915.1,701C914.7,702.2 914.4,703.5 914.4,704.9C914.4,710.1 915.5,713.9 917.8,716.2C920,718.7 922.8,719.8 926,719.8Z" style="fill:rgb(53,84,55);fill-rule:nonzero;"/>
            <path d="M1067.2,636.5C1073.6,636.5 1079.9,639.2 1086,644.6C1086,652.2 1085.1,657.8 1083.3,661.4C1081.5,665 1078.2,666.9 1073.4,666.9C1070.5,666.9 1067.1,665.2 1063.4,661.9C1059.6,658.6 1056.3,656.9 1053.4,656.9C1049,656.9 1045.9,659.3 1044.1,664.2C1042.3,669.1 1041.4,674.3 1041.4,679.8L1041.4,701.8C1041.4,711 1041.9,717.5 1042.9,721.4C1043.2,722.4 1045.1,723.6 1048.7,724.9C1052.3,726.2 1054.6,726.9 1055.8,726.9C1056.2,726.9 1056.5,728.1 1056.6,730.5C1056.7,732.9 1056.6,734.4 1056.3,735C1054.6,734.9 1050.1,734.5 1043,734C1035.9,733.5 1030.6,733.2 1027.3,733.2C1023.8,733.2 1018.4,733.5 1010.9,734C1003.4,734.5 999,734.8 997.4,735C996.8,734.4 996.5,732.9 996.5,730.5C996.5,728.1 996.8,726.9 997.4,726.9C999,726.9 1001.7,726.2 1005.5,724.9C1009.3,723.6 1011.3,722.4 1011.6,721.4C1012.6,717 1013.1,711.5 1013.1,704.8L1013.1,674.9C1013.1,666.8 1011.8,661.3 1009.2,658.5C1008.2,657.3 1006.7,656.4 1004.6,655.7C1002.6,655 1000.8,654.5 999.4,654.2C997.9,653.9 997.2,653.7 997.2,653.5C997.2,648.4 997.6,645.9 998.3,645.9C1000,645.9 1003,645.5 1007,644.7C1011.1,643.9 1016.4,642.8 1022.9,641.3C1029.4,639.8 1034.5,638.8 1038.2,638C1039.7,637.6 1040.5,637.3 1040.6,637.3C1041.3,637.3 1042.1,637.8 1042.8,638.7C1043.5,639.6 1043.9,640.4 1043.9,641C1043.6,642.7 1043.4,644.6 1043.2,646.7C1043.1,648.7 1042.9,650 1042.8,650.6C1049.7,641.2 1057.9,636.5 1067.2,636.5Z" style="fill:rgb(53,84,55);fill-rule:nonzero;"/>
            <path d="M1149.4,636.5C1162.5,636.5 1173,641 1180.9,650.1C1188.8,659.2 1192.8,668.5 1192.8,677.9C1192.8,681.2 1192.1,683.4 1190.7,684.4C1189.3,685.4 1186.6,685.9 1182.5,685.9L1133.2,685.9C1132.3,685.9 1131.9,686.4 1131.9,687.4C1131.9,695.3 1134.1,702.3 1138.6,708.6C1143,714.9 1149.4,718 1157.7,718C1162.5,718 1167.1,717.3 1171.4,715.9C1175.8,714.5 1178.8,713.3 1180.6,712.2C1182.3,711.1 1184.7,709.5 1187.6,707.3C1188.9,707.9 1189.6,709.3 1189.6,711.4C1189.6,713.1 1189.3,714.6 1188.7,715.8C1187.2,719.3 1182.9,723.4 1175.6,728.2C1168.3,733 1160.2,735.4 1151.2,735.4C1137.8,735.4 1126.3,730.5 1116.6,720.8C1106.9,711.1 1102.1,699.3 1102.1,685.7C1102.1,671.7 1106.5,660 1115.2,650.6C1123.8,641.2 1135.3,636.5 1149.4,636.5ZM1148.3,648.5C1142.6,648.5 1138.5,651.2 1135.9,656.7C1133.3,662.2 1132,667.5 1132,672.7C1132,673.6 1132.5,674 1133.5,674L1161.2,674C1163.2,674 1164.3,672.6 1164.3,669.9C1164.3,664.4 1162.8,659.4 1159.8,655.1C1156.7,650.7 1152.9,648.5 1148.3,648.5Z" style="fill:rgb(53,84,55);fill-rule:nonzero;"/>
            <path d="M1351.9,654.8C1351.9,651.6 1350,649.3 1346.2,647.8C1342.4,646.3 1338.6,645.6 1334.9,645.6L1334,645.6C1333.4,645.6 1333.1,644.4 1332.9,641.9C1332.8,639.4 1333,637.9 1333.6,637.3C1335.6,637.4 1340.1,637.8 1347,638.4C1353.9,639 1359,639.3 1362.4,639.3C1365.5,639.3 1369.7,639 1375.3,638.4C1380.8,637.8 1384.8,637.5 1387.1,637.3C1387.5,638.6 1387.8,640.1 1387.8,641.7C1387.8,644.2 1387.5,645.4 1386.9,645.4C1385.3,645.4 1382.1,646.5 1377.3,648.8C1372.5,651.1 1369.5,653.5 1368.4,656.1L1332.4,731.8C1332,732.8 1330.9,733.8 1329.2,734.9C1327.5,735.9 1325.9,736.4 1324.3,736.4C1322.8,736.4 1321.8,735.6 1321,734L1295,677.7L1270.1,731.6C1269.7,732.6 1268.7,733.7 1267.3,734.8C1265.8,735.9 1264,736.4 1261.8,736.4C1260.3,736.4 1259.2,735.6 1258.3,734L1221.4,652.8C1220.4,650.8 1218.3,649.1 1215.1,647.7C1211.9,646.3 1209.4,645.6 1207.7,645.6C1207.1,645.6 1206.8,644.2 1206.8,641.5C1206.8,639.2 1207,637.8 1207.5,637.4C1209.2,637.5 1213.6,637.9 1220.5,638.4C1227.4,638.9 1232.6,639.2 1236.1,639.2C1239.3,639.2 1244.9,638.9 1252.8,638.3C1260.7,637.7 1265.3,637.4 1266.4,637.4C1266.7,638.3 1266.9,639.8 1266.9,641.9C1267,644 1266.8,645.1 1266.4,645.3C1264.7,645.3 1262,646 1258.3,647.4C1254.7,648.8 1252.8,650.4 1252.8,652.3C1252.8,654.2 1258.7,668.6 1270.5,695.5C1272.1,692 1274,687.9 1276.3,683.2C1278.6,678.5 1280.2,675.1 1281.2,673.1C1282.2,671.1 1283.3,668.8 1284.4,666.3C1285.5,663.8 1286.2,662 1286.6,660.8C1287,659.6 1287.1,658.8 1287.1,658.2C1287.1,654.7 1286.6,652.2 1285.6,650.6C1284.6,649.1 1282.8,647.8 1280.4,646.7C1278.5,646 1275.5,645.6 1271.5,645.6C1270.9,645.6 1270.6,644.4 1270.5,642C1270.4,639.6 1270.7,638.1 1271.3,637.5C1273.2,637.6 1277.4,638 1284.1,638.5C1290.7,639 1295.8,639.3 1299.3,639.3C1302.5,639.3 1307.8,639 1315.3,638.4C1322.8,637.8 1327.3,637.5 1328.7,637.5C1329,638.2 1329,639.8 1328.8,642.2C1328.6,644.6 1328.3,645.8 1327.8,645.8C1325.3,645.8 1322.7,646.3 1320.1,647.3C1317.4,648.3 1316.1,650 1316.1,652.3C1316.1,654.5 1321.8,669 1333.1,695.7C1335.7,690 1338.7,683.7 1342.2,676.7C1345.6,669.7 1348.1,664.6 1349.7,661.2C1351.1,657.8 1351.9,655.7 1351.9,654.8Z" style="fill:rgb(53,84,55);fill-rule:nonzero;"/>
            <path d="M1405.3,650.9C1415.3,641.3 1427.4,636.5 1441.6,636.5C1455.9,636.5 1468,641.3 1477.9,650.9C1487.9,660.5 1492.8,672.2 1492.8,686C1492.8,699.8 1487.9,711.5 1478,721.1C1468.1,730.7 1456,735.5 1441.6,735.5C1427.3,735.5 1415.2,730.7 1405.3,721.1C1395.3,711.5 1390.4,699.8 1390.4,686C1390.3,672.2 1395.3,660.5 1405.3,650.9ZM1438.6,648.5C1434.4,648.5 1430.9,650.2 1428.1,653.5C1425.3,656.8 1423.5,660.7 1422.6,665C1421.7,669.3 1421.3,674.1 1421.3,679.3C1421.3,708.8 1428.8,723.6 1443.8,723.6C1449.9,723.6 1454.4,720.6 1457.2,714.7C1460,708.7 1461.5,701.8 1461.5,693.8C1461.5,663.5 1453.8,648.5 1438.6,648.5Z" style="fill:rgb(53,84,55);fill-rule:nonzero;"/>
            <path d="M1523.9,650.9C1533.9,641.3 1546,636.5 1560.2,636.5C1574.5,636.5 1586.6,641.3 1596.5,650.9C1606.5,660.5 1611.4,672.2 1611.4,686C1611.4,699.8 1606.5,711.5 1596.6,721.1C1586.7,730.7 1574.6,735.5 1560.2,735.5C1545.9,735.5 1533.8,730.7 1523.9,721.1C1513.9,711.5 1509,699.8 1509,686C1508.9,672.2 1513.9,660.5 1523.9,650.9ZM1557.1,648.5C1552.9,648.5 1549.4,650.2 1546.6,653.5C1543.8,656.8 1542,660.7 1541.1,665C1540.2,669.3 1539.8,674.1 1539.8,679.3C1539.8,708.8 1547.3,723.6 1562.3,723.6C1568.4,723.6 1572.9,720.6 1575.7,714.7C1578.5,708.7 1580,701.8 1580,693.8C1580,663.5 1572.4,648.5 1557.1,648.5Z" style="fill:rgb(53,84,55);fill-rule:nonzero;"/>
            <path d="M1678.1,636.5C1684.1,636.5 1689.2,637.2 1693.4,638.5C1693.8,638.5 1694.1,637.5 1694.1,635.4L1694.1,618.2C1694.1,612.1 1693.7,606.9 1692.8,602.5C1692.1,600.2 1688.3,599 1681.5,599L1679.5,599C1678.6,599 1678.2,597.5 1678.2,594.6C1678.2,592.1 1678.6,590.9 1679.5,590.9C1684,590.5 1688.6,589.9 1693.1,589.2C1697.7,588.5 1701.6,587.7 1704.8,587C1708,586.3 1710.9,585.5 1713.4,584.8C1715.9,584.1 1717.9,583.5 1719.4,583.1L1721.6,582.4L1722,582.4C1722.6,582.4 1723.2,582.8 1723.7,583.7C1724.3,584.6 1724.6,585.4 1724.8,586.1C1723.2,592.6 1722.4,600 1722.4,608.1L1722.4,701.9C1722.4,708.2 1722.8,713.4 1723.7,717.6C1724,718.6 1724.8,719.4 1726.1,720C1727.4,720.6 1728.8,720.9 1730.2,721.1C1731.7,721.2 1733,721.3 1734.3,721.3L1736.5,721.5C1736.9,721.6 1737.2,722.5 1737.2,724.1C1737.2,727.7 1736.8,729.6 1735.9,729.6C1733.7,729.7 1730.8,730 1727.3,730.5C1723.7,730.9 1720.2,731.4 1716.6,731.9C1713,732.4 1709.7,732.9 1706.5,733.4C1703.3,733.9 1700.7,734.4 1698.6,734.8L1695.3,735.2C1694.4,735.2 1694,734 1694,731.5L1694,727C1694,726.4 1693.9,726.1 1693.8,725.9C1693.7,725.8 1693.4,725.8 1693.1,726.1C1687,732.2 1679.6,735.3 1671.1,735.3C1659.3,735.3 1648.8,730.9 1639.6,722.1C1630.4,713.3 1625.7,701.8 1625.7,687.7C1625.7,673.2 1630.7,661 1640.6,651.2C1650.6,641.4 1663.1,636.5 1678.1,636.5ZM1676.8,648.3C1670,648.3 1665,651 1661.9,656.5C1658.8,662 1657.2,670.6 1657.2,682.6C1657.2,708.9 1663.7,722.1 1676.8,722.1C1681.7,722.1 1685.9,720.7 1689.1,717.8C1692.3,714.9 1694,711.5 1694,707.4L1694,667.7C1694,666 1693.9,664.3 1693.6,662.7C1693.3,661.1 1692.7,659.1 1691.6,656.6C1690.6,654.1 1688.8,652.1 1686.3,650.6C1683.7,649 1680.6,648.3 1676.8,648.3Z" style="fill:rgb(53,84,55);fill-rule:nonzero;"/>
        </g>
        <g>
            <path d="M961,821.7C963.4,821.7 966.4,822 970,822.6C973.6,823.2 976.1,823.6 977.5,823.8C978.6,828.8 979.2,834.3 979.4,840.4C979.4,840.9 978.7,841.2 977.3,841.2C975.8,841.2 975,840.8 974.9,840.1C974.4,837.1 972.8,834.2 970.3,831.5C967.8,828.8 964.9,827.4 961.6,827.4C953.8,827.4 949.9,830.6 949.9,837C949.9,838.6 950.1,840.1 950.5,841.3C950.9,842.5 951.8,843.7 953,844.9C954.2,846 955.2,846.8 955.8,847.3C956.4,847.8 957.9,848.7 960.1,849.9C962.3,851.1 963.7,851.9 964.2,852.3C964.6,852.5 965.9,853.2 968,854.5C970.1,855.7 971.6,856.6 972.5,857.2C973.4,857.7 974.6,858.7 976.3,860C978,861.3 979.2,862.5 980,863.5C980.8,864.5 981.5,865.8 982.2,867.4C982.9,869 983.3,870.6 983.3,872.2C983.3,878.6 980.8,883.9 975.8,888.2C970.8,892.5 965,894.6 958.3,894.6C956,894.6 953.9,894.5 952.1,894.2C950.2,893.9 948,893.5 945.4,892.8C942.8,892.2 940.8,891.7 939.4,891.5C938.8,889.8 938.1,887.1 937.5,883.4C936.9,879.7 936.6,876.8 936.6,874.6C937.5,874 938.1,873.6 938.5,873.6C940.1,873.6 941,873.9 941.1,874.6C941.7,877.8 943.8,881 947.2,884.1C950.6,887.2 954.3,888.7 958.3,888.7C961.8,888.7 964.6,887.8 966.8,885.9C969,884 970.1,881.3 970.1,877.7C970.1,875.9 969.7,874.2 969,872.6C968.3,871 967.2,869.6 965.6,868.4C964,867.2 962.6,866.1 961.2,865.3C959.8,864.5 957.9,863.4 955.4,862.1C952.9,860.8 951.1,859.8 949.9,859C941.5,854.1 937.2,848.3 937.2,841.6C937.2,835.8 939.6,831 944.3,827.3C949.2,823.5 954.7,821.7 961,821.7Z" style="fill:rgb(53,84,55);fill-rule:nonzero;"/>
            <path d="M1024.5,831.9L1015.1,831.9C1014.6,831.9 1014.3,830.8 1014.3,828.5C1014.3,827.9 1014.4,827.5 1014.5,827.4C1017.6,826 1021,823.1 1024.7,818.8C1025.9,817.4 1027.1,815.8 1028.2,814C1029.3,812.2 1030.3,810.7 1031,809.4C1031.8,808.1 1032.1,807.4 1032.1,807.3C1035.3,807.3 1037,807.6 1037,808.1L1037,824.2C1039.8,824.2 1044.1,824.2 1049.8,824.3C1055.5,824.4 1058.6,824.4 1058.9,824.4C1059.8,824.4 1060.2,824.9 1060.2,825.9C1060.2,827.8 1059.7,829.9 1058.6,832.1L1037,832.1L1037,871.9C1037,876.2 1038.1,879.7 1040.3,882.3C1042.5,884.9 1045.4,886.2 1049,886.2C1052.2,886.2 1055.6,885.2 1059.1,883.1C1059.4,882.9 1059.9,883.3 1060.6,884.5C1061.2,885.6 1061.5,886.3 1061.4,886.4C1059.8,888.1 1057.3,889.8 1053.9,891.5C1050.5,893.2 1047.1,894 1043.5,894C1038.1,894 1033.6,892.2 1030,888.6C1026.4,885 1024.6,879.9 1024.6,873.3L1024.6,831.9L1024.5,831.9Z" style="fill:rgb(53,84,55);fill-rule:nonzero;"/>
            <path d="M1156.3,837.3L1156.3,869.8C1156.3,874.5 1156.7,878.6 1157.4,882.1C1157.6,882.9 1158.2,883.5 1159.2,883.9C1160.2,884.3 1161.2,884.6 1162.3,884.7C1163.4,884.8 1164.5,884.9 1165.5,884.9L1167,885.1C1167.3,885.2 1167.5,885.8 1167.5,886.9C1167.5,887.2 1167.4,887.7 1167.1,888.4C1166.8,889.1 1166.5,889.5 1166.2,889.5C1164.6,889.6 1162.8,889.8 1160.8,890.1C1158.8,890.4 1156.9,890.8 1155.2,891.2C1153.5,891.6 1151.8,892.1 1150.3,892.5C1148.8,892.9 1147.6,893.3 1146.7,893.6L1145.2,893.9C1144.3,893.9 1143.9,893 1143.9,891.3L1143.9,883L1143.6,882.2C1136.5,889.9 1129.4,893.7 1122.3,893.7C1118.3,893.7 1114.9,892.7 1112,890.7C1109.1,888.7 1107,886.1 1105.7,882.7C1104.3,879.4 1103.4,876.2 1102.9,873.1C1102.4,870 1102.1,866.8 1102.1,863.4L1102.1,843C1102.1,838.8 1101.3,835.9 1099.8,834.2C1098.7,832.9 1097.4,832 1095.8,831.5C1094.2,831 1092.9,830.8 1091.9,830.8C1090.9,830.8 1090.4,830.7 1090.4,830.5C1090.4,827.9 1090.7,826.6 1091.4,826.4C1102.9,824.7 1110.3,823.3 1113.8,822.2C1113.9,822.2 1114.2,822.1 1114.6,822C1115,822 1115.3,822.5 1115.4,823.4C1115.5,824.3 1115.5,825 1115.4,825.4C1114.8,830.6 1114.4,834.6 1114.4,837.4L1114.4,859.3C1114.4,867.6 1115.6,873.8 1118.1,877.7C1120.6,881.6 1124.6,883.6 1130.3,883.6C1133.5,883.6 1136.6,882.3 1139.5,879.8C1142.4,877.3 1143.9,875.1 1143.9,873.2L1143.9,842.9C1143.9,838.7 1143.1,835.8 1141.6,834.1C1140.5,832.8 1139.2,831.9 1137.6,831.4C1136,830.9 1134.7,830.7 1133.7,830.7C1132.7,830.7 1132.2,830.6 1132.2,830.4C1132.2,827.8 1132.5,826.5 1133.2,826.3C1144.7,824.6 1152.1,823.2 1155.6,822.1C1155.7,822.1 1156,822 1156.4,821.9C1156.8,821.9 1157.1,822.4 1157.2,823.3C1157.3,824.2 1157.3,824.9 1157.2,825.3C1156.6,830.8 1156.3,834.7 1156.3,837.3Z" style="fill:rgb(53,84,55);fill-rule:nonzero;"/>
            <path d="M1235.2,821.2C1239.8,821.2 1243.9,822.1 1247.4,824C1248.2,824 1248.5,823 1248.5,821.1L1248.5,803.6C1248.5,799.9 1248.2,796.5 1247.5,793.2C1247,791.5 1244.2,790.6 1239.2,790.6L1237.7,790.6C1237.1,790.6 1236.7,790 1236.7,788.8C1236.7,787.1 1237,786.2 1237.7,786.2C1240.9,785.9 1243.9,785.4 1246.7,784.9C1249.5,784.4 1251.6,783.8 1253.2,783.3C1254.8,782.8 1256.1,782.2 1257.2,781.8C1258.3,781.3 1259.1,780.9 1259.6,780.6L1260.2,780.1L1260.5,780.1C1260.9,780.1 1261.4,780.4 1261.8,781C1262.2,781.6 1262.5,782.2 1262.6,782.7C1261.4,786.2 1260.8,790.9 1260.8,796.8L1260.8,869.8C1260.8,875 1261.1,879.1 1261.8,882.1C1262,882.9 1262.6,883.5 1263.6,883.9C1264.6,884.3 1265.6,884.6 1266.6,884.7C1267.6,884.8 1268.6,884.9 1269.6,884.9L1271.1,885.1C1271.4,885.2 1271.6,885.9 1271.6,887C1271.6,888.6 1271.3,889.4 1270.6,889.4C1269,889.5 1267.2,889.7 1265.2,890C1263.2,890.3 1261.3,890.7 1259.5,891.1C1257.7,891.5 1256.1,891.9 1254.6,892.2C1253.1,892.6 1251.8,892.9 1250.9,893.3L1249.4,893.6C1248.8,893.6 1248.4,892.7 1248.4,890.8L1248.4,888.9C1248.4,888.3 1248.2,888 1247.8,888.3C1241.7,891.7 1236,893.3 1230.6,893.3C1221.6,893.3 1214.1,890.1 1208,883.7C1201.9,877.3 1198.9,869.7 1198.9,860.8C1198.9,850.3 1202.6,841.1 1210,833.1C1217.6,825.2 1225.9,821.2 1235.2,821.2ZM1233.1,828C1226.8,828 1221.9,830.8 1218.3,836.4C1214.7,842 1212.9,848.6 1212.9,856C1212.9,863.9 1215,870.7 1219.2,876.5C1223.4,882.3 1229.3,885.2 1236.7,885.2C1240.4,885.2 1243.2,884.4 1245.3,882.7C1247.4,881 1248.4,878.8 1248.4,876L1248.4,837.4C1248.4,835.1 1247.2,833 1244.7,831C1242.5,829 1238.5,828 1233.1,828Z" style="fill:rgb(53,84,55);fill-rule:nonzero;"/>
            <path d="M1326.2,870.7C1326.2,877 1326.6,881.8 1327.5,885.1C1327.7,885.9 1329.1,886.6 1331.7,887.3C1334.3,888 1336.1,888.4 1337.2,888.4C1337.5,888.4 1337.7,889 1337.8,890.3C1337.9,891.6 1337.9,892.5 1337.6,893.1C1326.8,892.6 1321,892.3 1320.2,892.3C1319.4,892.3 1313.5,892.6 1302.5,893.1C1302.1,892.7 1301.9,891.8 1301.9,890.4C1301.9,889 1302.1,888.4 1302.5,888.4C1303.8,888.4 1305.7,888.1 1308.3,887.3C1310.8,886.6 1312.2,885.9 1312.4,885.1C1313.2,882 1313.5,878.2 1313.5,873.7L1313.5,843C1313.5,838.8 1312.7,835.9 1311.2,834.2C1310.1,832.9 1308.8,832 1307.2,831.5C1305.6,831 1304.3,830.8 1303.3,830.8C1302.3,830.8 1301.8,830.7 1301.8,830.5C1301.8,827.9 1302.1,826.6 1302.8,826.4C1314.3,824.7 1321.7,823.3 1325.2,822.2L1325.5,822C1325.7,822 1325.9,822 1326,822C1326.4,822 1326.7,822.5 1326.8,823.4C1326.9,824.3 1326.9,825 1326.8,825.4C1326.3,829.7 1326,833.6 1326,837.1L1326,870.7L1326.2,870.7ZM1312.9,802.1C1311.3,800.5 1310.5,798.6 1310.5,796.3C1310.5,794 1311.3,792.1 1312.9,790.5C1314.5,788.9 1316.4,788.1 1318.7,788.1C1321,788.1 1322.9,788.9 1324.5,790.5C1326.1,792.1 1326.9,794 1326.9,796.3C1326.9,798.6 1326.1,800.5 1324.5,802.1C1322.9,803.7 1321,804.5 1318.7,804.5C1316.4,804.5 1314.5,803.7 1312.9,802.1Z" style="fill:rgb(53,84,55);fill-rule:nonzero;"/>
            <path d="M1404.9,821.7C1414.6,821.7 1423,825.2 1429.9,832.2C1436.8,839.2 1440.3,847.7 1440.3,857.5C1440.3,867.5 1436.9,876 1430.2,883.1C1423.4,890.2 1415.1,893.7 1405.3,893.7C1395.5,893.7 1387.1,890.2 1380.1,883.1C1373.2,876 1369.7,867.5 1369.7,857.5C1369.7,847.4 1373.1,838.9 1379.8,832C1386.5,825.2 1394.9,821.7 1404.9,821.7ZM1403.1,828C1397.4,828 1392.7,830.6 1389.1,835.9C1385.5,841.1 1383.7,847.6 1383.7,855.1C1383.7,864 1386,871.6 1390.6,877.9C1395.2,884.2 1400.6,887.4 1406.7,887.4C1412.4,887.4 1417.1,884.7 1420.8,879.3C1424.5,873.9 1426.3,867.4 1426.3,859.8C1426.3,851 1424,843.5 1419.3,837.3C1414.7,831.1 1409.3,828 1403.1,828Z" style="fill:rgb(53,84,55);fill-rule:nonzero;"/>
            <path d="M1500.7,821.7C1503.1,821.7 1506.1,822 1509.7,822.6C1513.3,823.2 1515.8,823.6 1517.2,823.8C1518.3,828.8 1518.9,834.3 1519.1,840.4C1519.1,840.9 1518.4,841.2 1517,841.2C1515.5,841.2 1514.7,840.8 1514.6,840.1C1514.1,837.1 1512.5,834.2 1510,831.5C1507.5,828.8 1504.6,827.4 1501.3,827.4C1493.5,827.4 1489.6,830.6 1489.6,837C1489.6,838.6 1489.8,840.1 1490.2,841.3C1490.6,842.5 1491.5,843.7 1492.7,844.9C1493.9,846 1494.9,846.8 1495.5,847.3C1496.1,847.8 1497.6,848.7 1499.8,849.9C1502,851.1 1503.4,851.9 1503.9,852.3C1504.3,852.5 1505.6,853.2 1507.7,854.5C1509.8,855.7 1511.3,856.6 1512.2,857.2C1513.1,857.7 1514.3,858.7 1516,860C1517.7,861.3 1518.9,862.5 1519.7,863.5C1520.5,864.5 1521.2,865.8 1521.9,867.4C1522.6,869 1523,870.6 1523,872.2C1523,878.6 1520.5,883.9 1515.5,888.2C1510.5,892.5 1504.7,894.6 1498,894.6C1495.7,894.6 1493.6,894.5 1491.8,894.2C1489.9,893.9 1487.7,893.5 1485.1,892.8C1482.5,892.2 1480.5,891.7 1479.1,891.5C1478.5,889.8 1477.8,887.1 1477.2,883.4C1476.6,879.7 1476.3,876.8 1476.3,874.6C1477.2,874 1477.8,873.6 1478.2,873.6C1479.8,873.6 1480.7,873.9 1480.8,874.6C1481.4,877.8 1483.5,881 1486.9,884.1C1490.3,887.2 1494,888.7 1498,888.7C1501.5,888.7 1504.3,887.8 1506.5,885.9C1508.7,884 1509.8,881.3 1509.8,877.7C1509.8,875.9 1509.4,874.2 1508.7,872.6C1508,871 1506.9,869.6 1505.3,868.4C1503.7,867.2 1502.3,866.1 1500.9,865.3C1499.5,864.5 1497.6,863.4 1495.1,862.1C1492.6,860.8 1490.8,859.8 1489.6,859C1481.2,854.1 1476.9,848.3 1476.9,841.6C1476.9,835.8 1479.3,831 1484,827.3C1488.9,823.5 1494.4,821.7 1500.7,821.7Z" style="fill:rgb(53,84,55);fill-rule:nonzero;"/>
        </g>
    </g>
</svg>
