<?xml version="1.0" encoding="UTF-8" standalone="no"?>
<!DOCTYPE svg PUBLIC "-//W3C//DTD SVG 1.1//EN" "http://www.w3.org/Graphics/SVG/1.1/DTD/svg11.dtd">
<svg width="100%" height="100%" viewBox="0 0 1400 1400" version="1.1" xmlns="http://www.w3.org/2000/svg" xmlns:xlink="http://www.w3.org/1999/xlink" xml:space="preserve" style="fill-rule:evenodd;clip-rule:evenodd;stroke-linejoin:round;stroke-miterlimit:1.41421;">
    <g id="Icon_2_">
        <g transform="matrix(1.28957,0,0,1.28957,-202.683,-202.75)">
            <path d="M615,461.7C632.4,493.3 646.8,527.9 660.5,566.2C661.8,569.9 665.3,572.5 669.2,572.8C766.2,579.7 852.5,603 925.9,646.1C931.2,649.2 934.5,646.9 933.2,640.9C884.5,408.2 823,255 679.5,171.4C674.8,168.7 668.9,170.1 665.7,174.5C601.8,264.2 606,401.1 608.9,441.1C609.4,448.4 611.5,455.4 615,461.7Z" style="fill:rgb(53,84,55);fill-rule:nonzero;"/>
        </g>
        <g transform="matrix(1.28957,0,0,1.28957,-202.683,-202.75)">
            <path d="M1130.2,1012C1056.9,737.4 881.2,619.5 639.7,602.2C635.8,601.9 632.5,599.4 631.2,595.7C578.7,449.5 517.8,358 316.6,281.1C311.5,279.1 305.7,281.8 303.8,287C224.8,506.8 271.1,655.1 422.8,873.6C429.9,883.8 425.6,890.6 413.3,888.9C371.7,883.1 328.3,870.9 283.8,854.7C270.5,849.8 265,856 271.7,868.5C339.4,995 434,1105.2 596.2,1175.1C695.3,1217.8 803.5,1236.1 911.1,1228.3C1019.9,1220.4 1107,1183.4 1132,1062.9C1135.5,1046 1134.7,1028.6 1130.2,1012ZM558.9,625.8C539.9,594.8 520.3,565.3 500,537.3C468.2,558.6 451.7,580 440.9,612.3C439.4,616.7 438.2,616.5 438,611.9C436.7,568.4 451.8,536.1 483.5,515.1C463.3,488.7 442.5,463.7 421,440.4C389.1,461.7 372.5,483.2 361.8,515.5C360.3,519.9 359.1,519.7 358.9,515.1C357.6,472.8 371.9,441.2 401.8,420.2C380,398 357.6,377.2 334.4,358.2C330.7,355.2 331.4,354 335.8,355.7C454.6,400.1 523,496.9 561.5,624.7C563.3,630.5 562.1,631.1 558.9,625.8ZM882.1,948.5C759.8,946.8 695.5,908.2 676.9,840.5C676,837.1 678.2,834.3 681.8,834.4C728.3,835.1 773.2,839.8 814.8,852.8C823.3,855.5 831.2,860 837.6,866.2C861.7,889.5 878.7,914.7 887,942.3C888,945.7 885.7,948.5 882.1,948.5Z" style="fill:rgb(53,84,55);fill-rule:nonzero;"/>
        </g>
    </g>
</svg>
